HIERARCHY
ROOT Hips
{
	OFFSET -3.958830 18.904000 13.208200
	CHANNELS 6 Xposition Yposition Zposition Zrotation Yrotation Xrotation 
	JOINT LHipJoint
	{
		OFFSET 0.000000 0.000000 0.000000
		CHANNELS 3 Zrotation Yrotation Xrotation
		JOINT LeftUpLeg
		{
			OFFSET 1.800000 -1.400000 0.085000
			CHANNELS 3 Zrotation Yrotation Xrotation
			JOINT LeftLeg
			{
				OFFSET 2.215000 -6.000000 0.000000
				CHANNELS 3 Zrotation Yrotation Xrotation
				JOINT LeftFoot
				{
					OFFSET 2.500000 -6.900000 0.000000
					CHANNELS 3 Zrotation Yrotation Xrotation
					JOINT LeftToeBase
					{
						OFFSET 0.200000 -0.500000 1.950000
						CHANNELS 3 Zrotation Yrotation Xrotation
						End Site
						{
							OFFSET 0.000000 0.000000 0.000000
						}
					}
				}
			}
		}
	}
	JOINT RHipJoint
	{
		OFFSET 0.000000 0.000000 0.000000
		CHANNELS 3 Zrotation Yrotation Xrotation
		JOINT RightUpLeg
		{
			OFFSET -1.800000 -1.400000 0.085000
			CHANNELS 3 Zrotation Yrotation Xrotation
			JOINT RightLeg
			{
				OFFSET -2.215000 -6.000000 0.000000
				CHANNELS 3 Zrotation Yrotation Xrotation
				JOINT RightFoot
				{
					OFFSET -2.500000 -6.900000 0.000000
					CHANNELS 3 Zrotation Yrotation Xrotation
					JOINT RightToeBase
					{
						OFFSET -0.200000 -0.500000 1.950000
						CHANNELS 3 Zrotation Yrotation Xrotation
						End Site
						{
							OFFSET 0.000000 0.000000 0.000000
						}
					}
				}
			}
		}
	}
	JOINT LowerBack
	{
		OFFSET 0.000000 0.000000 0.000000
		CHANNELS 3 Zrotation Yrotation Xrotation
		JOINT Spine
		{
			OFFSET -0.087000 1.940000 -0.288900
			CHANNELS 3 Zrotation Yrotation Xrotation
			JOINT Spine1
			{
				OFFSET 0.000000 1.950000 0.060000
				CHANNELS 3 Zrotation Yrotation Xrotation
				JOINT Neck
				{
					OFFSET 0.000000 0.000000 0.000000
					CHANNELS 3 Zrotation Yrotation Xrotation
					JOINT Neck1
					{
						OFFSET 0.000000 1.600000 0.340000
						CHANNELS 3 Zrotation Yrotation Xrotation
						JOINT Head
						{
							OFFSET 0.000000 1.667000 -0.240000
							CHANNELS 3 Zrotation Yrotation Xrotation
							End Site
							{
								OFFSET 0.000000 0.000000 0.000000
							}
						}
					}
				}
				JOINT LeftShoulder
				{
					OFFSET 0.000000 0.000000 0.000000
					CHANNELS 3 Zrotation Yrotation Xrotation
					JOINT LeftArm
					{
						OFFSET 2.700000 1.550000 -0.730000
						CHANNELS 3 Zrotation Yrotation Xrotation
						JOINT LeftForeArm
						{
							OFFSET 5.450000 0.000000 0.000000
							CHANNELS 3 Zrotation Yrotation Xrotation
							JOINT LeftHand
							{
								OFFSET 3.450000 0.000000 0.000000
								CHANNELS 3 Zrotation Yrotation Xrotation
								JOINT LeftHandIndex1
								{
									OFFSET 0.750000 0.000000 0.000000
									CHANNELS 3 Zrotation Yrotation Xrotation
									End Site
									{
										OFFSET 0.000000 0.000000 0.000000
									}
								}
							}
						}
					}
				}
				JOINT RightShoulder
				{
					OFFSET 0.000000 0.000000 0.000000
					CHANNELS 3 Zrotation Yrotation Xrotation
					JOINT RightArm
					{
						OFFSET -2.700000 1.550000 -0.730000
						CHANNELS 3 Zrotation Yrotation Xrotation
						JOINT RightForeArm
						{
							OFFSET -5.450000 0.000000 0.000000
							CHANNELS 3 Zrotation Yrotation Xrotation
							JOINT RightHand
							{
								OFFSET -3.450000 0.000000 0.000000
								CHANNELS 3 Zrotation Yrotation Xrotation
								JOINT RightHandIndex1
								{
									OFFSET -0.750000 0.000000 0.000000
									CHANNELS 3 Zrotation Yrotation Xrotation
									End Site
									{
										OFFSET 0.000000 0.000000 0.000000
									}
								}
							}
						}
					}
				}
			}
		}
	}
}
MOTION
Frames: 12
Frame Time: 0.016667
2.310470 16.809750 -0.649700 2.202397 33.738054 -6.666846 -15.580375 11.593058 4.711350 3.540840 -12.570052 -3.946968 -34.139911 32.897238 55.922354 2.501607 15.007276 -0.203897 0.172030 0.125260 0.080650 18.229284 -8.508520 3.848895 9.065252 8.984908 -40.665276 -1.712521 -5.284955 43.809972 -0.621979 -5.141762 2.324604 0.133570 0.106620 0.161730 -3.186385 -2.669639 -9.284315 2.989437 -3.747991 48.015253 -2.533030 -2.169473 -4.216602 1.007511 5.228837 -2.519283 4.049069 -8.167423 41.390675 6.511280 -6.623000 -13.046720 -18.420658 6.826585 -4.962289 4.839617 10.810665 -2.991551 72.425865 -52.626184 -30.734456 -3.967248 2.578497 0.411310 -0.044560 0.179010 0.057720 17.690492 -11.036950 1.845543 27.303420 -25.332145 -6.498480 -6.550730 -5.726313 0.791059 2.801097 -0.808668 -0.128620 0.242310 0.096090 -0.043940 
2.326450 16.692940 -0.636400 2.192684 34.201439 -7.502465 -15.589219 11.496669 4.742040 4.631304 -12.963924 -3.938457 -34.951553 34.287213 56.943900 2.565215 15.249384 -0.283230 0.215660 0.173010 0.132450 18.241156 -8.397285 3.907389 9.229909 9.443067 -41.251249 -2.535629 -5.404526 46.809149 -0.753233 -5.642508 2.141881 0.152800 0.051590 0.161040 -3.154412 -2.678555 -9.329573 2.765165 -3.540500 49.971058 -2.529945 -1.986246 -5.036558 1.235467 5.810246 -2.391906 5.190212 -8.878427 40.595487 6.475150 -6.380370 -14.567300 -18.391564 6.908162 -5.089651 5.792595 10.372243 -2.779693 75.054852 -50.291547 -30.629297 -3.974001 2.604946 0.436160 -0.077640 0.215520 0.051700 17.267419 -11.444987 1.672895 27.553103 -25.065295 -6.557432 -8.145106 -7.504586 1.204615 2.857111 -0.823922 -0.113160 0.226230 0.065230 -0.061360 
2.367750 16.540540 -0.585400 2.148341 34.225111 -8.215578 -15.556352 11.273904 4.701344 5.094908 -13.285729 -4.006485 -33.857036 35.565382 59.787605 2.716474 15.662169 -0.354410 0.183900 0.140970 0.102850 18.313272 -8.254095 4.116681 9.361707 10.617190 -43.053487 -3.428542 -5.827310 52.407481 -0.950642 -6.650479 1.828950 0.122510 0.067070 0.139950 -3.286222 -2.427119 -9.455429 3.162592 -3.814748 52.584794 -3.329533 -2.395896 -7.513387 1.057033 5.643925 -2.273914 5.129875 -8.913189 39.902645 7.529780 -6.887770 -13.947120 -18.663328 7.215034 -5.000309 6.749333 10.716566 -2.397118 78.237007 -44.525308 -28.169690 -4.044277 2.680209 0.423060 -0.082630 0.200320 0.058400 17.827301 -11.671430 1.303476 26.994038 -24.551294 -6.394269 -11.642834 -10.706870 2.186710 2.969553 -0.858791 -0.116420 0.226520 0.062580 -0.045420 
2.396210 16.439510 -0.538090 2.027363 33.661359 -9.223224 -15.534772 11.186379 4.620803 5.185988 -13.379573 -3.662854 -31.519096 35.616134 62.401148 2.784201 15.892088 -0.410301 0.185670 0.140790 0.109870 18.354389 -8.190076 4.252569 9.481339 11.413850 -43.635474 -3.384479 -6.526452 56.330527 -1.126537 -7.401567 1.592344 0.109140 0.045840 0.137060 -3.364600 -2.287596 -9.529542 3.441561 -3.904410 54.040735 -3.906959 -2.492720 -7.894162 1.042438 5.540203 -2.672105 5.002952 -9.105573 40.910020 7.511300 -7.049900 -13.469600 -18.999811 6.419882 -4.696129 6.528983 10.206418 -2.653332 80.748720 -40.250213 -26.636725 -4.021446 2.723214 0.430210 -0.098990 0.214490 0.057690 18.077901 -10.776839 1.418071 27.381882 -23.301107 -6.586215 -12.002872 -13.920312 2.763841 3.036429 -0.866843 -0.104850 0.211570 0.050990 -0.044940 
2.414710 16.369270 -0.484520 1.685435 32.639611 -9.951213 -15.521651 11.142996 4.532270 5.395081 -13.397531 -3.453344 -28.980619 35.344064 64.850521 2.852717 16.052947 -0.454917 0.176270 0.122330 0.138090 18.381521 -8.117613 4.390679 9.977687 12.272761 -43.613993 -2.928537 -7.132488 58.665865 -1.255269 -7.848998 1.454620 0.069420 -0.002050 0.144230 -3.400054 -2.228622 -9.604102 3.354644 -3.933804 54.360100 -4.323941 -2.575772 -7.649633 1.115226 5.737411 -4.002099 5.633394 -8.602779 42.470181 6.858650 -5.715260 -12.498520 -18.825767 4.317697 -3.638787 6.020406 11.026937 -3.231710 82.217411 -37.234030 -25.645868 -3.944428 2.754790 0.446870 -0.120130 0.247100 0.040270 17.578630 -8.780673 2.186358 30.390657 -22.304578 -7.397697 -13.943823 -12.390909 2.942097 3.039589 -0.939265 -0.083190 0.166680 0.034060 -0.059940 
2.448800 16.356500 -0.460420 1.044453 31.920106 -10.843653 -15.524848 11.258111 4.464546 5.106505 -13.421293 -3.242707 -25.837749 34.256058 67.314441 2.845654 16.136912 -0.493473 0.184640 0.120180 0.154020 18.367685 -8.128123 4.392706 9.915127 12.303013 -42.842248 -1.781508 -7.945083 58.920138 -1.305335 -7.965247 1.412710 0.059180 -0.029110 0.148840 -3.374887 -2.391365 -9.596698 3.533082 -4.316288 53.816777 -3.879752 -2.658482 -6.083950 0.950777 4.918801 -4.880440 4.053046 -7.914262 43.798018 6.707340 -5.372550 -12.895690 -18.777028 2.979883 -2.976335 3.316014 10.713295 -4.254820 83.366306 -36.842443 -26.728252 -3.847159 2.747618 0.476200 -0.145530 0.269020 0.032270 17.697588 -6.826750 3.116876 31.238269 -21.358972 -7.360677 -13.202238 -6.160261 1.841008 2.919116 -0.957506 -0.076870 0.157300 0.034580 -0.070490 
2.486280 16.387840 -0.473070 0.355018 30.174169 -10.840532 -15.512474 11.371099 4.287678 3.899020 -12.739425 -2.945099 -22.258534 32.052224 68.590412 2.744547 15.949505 -0.470351 0.184100 0.115590 0.168120 18.375160 -8.175189 4.480125 10.307973 12.684085 -42.496364 -1.331507 -7.903886 58.133034 -1.280783 -7.833736 1.446218 0.063730 -0.033830 0.162810 -3.404984 -2.356489 -9.546506 4.236207 -4.109422 51.459410 -4.455932 -2.129732 -4.735211 1.348959 5.452005 -5.121117 5.171195 -7.730942 44.453349 5.926950 -4.175010 -12.569030 -18.990654 2.049456 -3.044906 3.125578 8.615808 -4.508243 82.499472 -40.677612 -29.366319 -3.835312 2.675803 0.482670 -0.130890 0.270940 0.017980 17.103011 -6.402161 3.621737 33.348408 -21.295345 -8.119421 -10.696364 1.854174 0.638299 2.738192 -0.968726 -0.082360 0.148180 0.046090 -0.089350 
2.510870 16.446490 -0.472540 -0.169630 28.194411 -10.582469 -15.525972 11.554015 4.150377 2.913339 -12.030993 -2.456941 -19.149955 30.084842 69.552301 2.656291 15.708175 -0.425422 0.195370 0.130070 0.202340 18.348128 -8.223017 4.514129 11.193765 12.789440 -41.156074 -0.877853 -7.481037 55.674329 -1.194235 -7.361866 1.592585 0.072220 -0.060000 0.165650 -3.335238 -2.481285 -9.478617 4.161702 -3.491209 48.289435 -4.307947 -1.387683 -3.478607 1.745236 5.750961 -5.365280 5.637655 -7.701694 45.233830 4.318940 -3.060450 -12.373890 -17.948838 2.043607 -3.168077 1.664942 6.439199 -4.662601 78.570399 -47.714147 -32.198721 -3.736728 2.527386 0.485620 -0.127080 0.284840 0.005150 15.272690 -6.533269 4.045890 35.382979 -22.062831 -10.027170 -6.515858 11.944977 -0.245493 2.539192 -1.000286 -0.080010 0.138560 0.035350 -0.108030 
2.513240 16.537500 -0.476080 -0.282341 27.411526 -9.974441 -15.540731 11.857911 3.957034 1.908742 -11.247208 -1.887829 -15.201049 26.593167 69.428774 2.454418 15.081100 -0.287755 0.199800 0.141800 0.212480 18.293380 -8.400860 4.457988 11.218405 12.186849 -39.885703 -0.259543 -7.119798 52.406707 -1.069036 -6.772375 1.774669 0.081200 -0.061970 0.180710 -3.265662 -2.639009 -9.329648 3.805986 -2.941719 44.771491 -3.812427 -0.883361 -1.749444 1.822889 6.187494 -5.776846 6.305238 -7.865630 45.223062 3.446180 -2.503120 -12.534580 -16.743580 0.777257 -3.322018 1.344428 3.878602 -5.200523 68.035244 -55.929013 -31.157637 -3.588258 2.414349 0.481560 -0.112530 0.293120 -0.000720 13.904107 -5.709918 4.670832 37.529744 -22.574334 -11.998394 -0.248515 18.439145 -0.289987 2.394325 -1.035480 -0.074900 0.137510 0.038250 -0.113020 
2.474650 16.679380 -0.490760 -0.506458 26.927219 -9.088078 -15.571483 12.233292 3.759167 1.534139 -10.430593 -2.214456 -11.282543 22.566699 68.031944 2.203185 14.164826 -0.062439 0.174610 0.105120 0.211270 18.203577 -8.602811 4.396634 11.791790 11.378360 -38.154596 0.165023 -6.319168 47.208028 -0.854234 -5.806793 2.094466 0.053240 -0.060710 0.182270 -3.128031 -2.875037 -9.171880 2.824816 -2.256261 40.734716 -2.509699 -0.352175 -0.511056 1.810437 6.601904 -6.752515 7.007910 -8.105188 46.659512 2.531580 -2.224390 -10.347810 -14.914046 -0.635767 -2.851603 -2.068993 2.628575 -6.346520 53.799372 -65.351333 -28.691019 -3.433852 2.485084 0.466780 -0.098610 0.283990 -0.006670 12.130468 -4.490158 5.432250 39.880221 -22.083478 -13.273114 5.746303 20.973811 0.013996 2.358302 -1.060139 -0.073360 0.117510 0.038520 -0.115500 
2.407060 16.868650 -0.520970 -0.409417 25.800946 -6.952878 -15.585462 12.555082 3.510430 1.048935 -9.017003 -3.345639 -7.598926 18.289255 64.511483 1.832407 12.911629 0.255489 0.131840 0.043350 0.196910 18.131825 -8.842421 4.389057 12.368269 10.740308 -36.919089 0.680982 -5.202119 40.193450 -0.567977 -4.543177 2.524126 0.026540 -0.039260 0.181930 -3.036888 -2.893937 -8.979386 1.745452 -1.286563 35.597683 -1.603635 0.301943 0.830153 1.826086 7.018088 -7.545365 7.856302 -8.427158 47.194723 1.462840 -2.227140 -8.310170 -13.538064 -1.499484 -1.964628 -6.500621 0.370514 -6.554268 33.173219 -69.866249 -19.615431 -3.482740 2.870694 0.447630 -0.069180 0.251530 -0.022840 10.768908 -3.743953 5.659697 43.320755 -20.225733 -14.168936 10.574382 21.634298 0.240156 2.354629 -1.063173 -0.090100 0.109810 0.062890 -0.123780 
2.358200 17.059180 -0.584150 -0.453481 24.388555 -4.959939 -15.591638 12.839407 3.290836 -0.029479 -7.514768 -4.371236 -3.802550 14.205244 60.524346 1.478980 11.559861 0.632360 0.105780 0.013760 0.184560 18.072677 -9.133382 4.321378 13.140667 9.724741 -35.246518 0.418579 -3.948838 32.568536 -0.303917 -3.289635 2.971324 0.012340 -0.018300 0.189270 -2.971697 -2.813938 -8.742371 1.118972 -0.558607 30.626418 -0.840879 0.774045 2.302041 1.982955 7.467776 -8.212674 9.039935 -8.622989 46.614164 0.303680 -1.903470 -6.685850 -12.565849 -2.199490 -0.846574 -11.148398 -2.027643 -5.874953 6.020214 -71.663050 -3.725165 -3.557184 3.217912 0.409890 -0.033690 0.224880 -0.025630 9.517599 -3.182281 5.654190 45.878804 -17.534846 -14.094992 14.985061 20.943767 0.402139 2.376580 -1.092410 -0.090120 0.094300 0.068680 -0.120150 
